<?xml version="1.0" encoding="UTF-8"?>
<svg version="1.1" xmlns="http://www.w3.org/2000/svg" width="736" height="552">
<path d="M0 0 C242.88 0 485.76 0 736 0 C736 182.16 736 364.32 736 552 C493.12 552 250.24 552 0 552 C0 369.84 0 187.68 0 0 Z " fill="#FEFEFE" transform="translate(0,0)"/>
<path d="M0 0 C1.57766213 0.00028247 3.15532439 0.00012296 4.73298645 -0.0004425 C8.99265988 -0.00072813 13.25230486 0.00513053 17.51197171 0.01213145 C21.97224866 0.0184042 26.43252633 0.01897188 30.89280701 0.02015686 C39.32859695 0.02325864 47.76437385 0.03145644 56.20015806 0.04150635 C65.80840466 0.05270336 75.41665191 0.05818697 85.02490342 0.06320179 C104.78020004 0.07364006 124.53548494 0.0912171 144.29077148 0.11352539 C144.29690902 1.55679805 144.30129227 3.00007825 144.30493164 4.44335938 C144.30887436 5.64894753 144.30887436 5.64894753 144.31289673 6.87889099 C144.11065739 27.30492422 132.24411323 45.2597082 118.29077148 59.11352539 C100.97371663 75.515836 77.97055994 79.04011938 55.10717773 79.65649414 C54.37404421 79.67739798 53.64091068 79.69830181 52.88556099 79.7198391 C41.05106603 80.0545852 29.21927729 80.21022618 17.38061523 80.28930664 C15.79106525 80.30125876 14.20151649 80.31337457 12.61196899 80.32565308 C11.01727344 80.33769086 9.42257739 80.34966387 7.82788086 80.36157227 C7.03909231 80.36746431 6.25030376 80.37335636 5.43761253 80.37942696 C1.39898619 80.40820058 -2.63950286 80.4298259 -6.67822266 80.43945312 C-10.70530885 80.44965148 -14.73187735 80.47919126 -18.75875664 80.52077293 C-20.25464375 80.53283681 -21.75060414 80.53825096 -23.24653816 80.5359745 C-49.51412434 80.5056961 -72.18139602 89.72003701 -91.28344727 107.63305664 C-93.70297995 109.99109514 -93.70297995 109.99109514 -95.41625977 112.43774414 C-96.0562793 113.26725586 -96.0562793 113.26725586 -96.70922852 114.11352539 C-97.36922852 114.11352539 -98.02922852 114.11352539 -98.70922852 114.11352539 C-104.17805367 86.50897935 -103.68967399 60.75736717 -88.77954102 36.13305664 C-82.34941609 26.75478011 -74.76794995 19.55558748 -64.70922852 14.11352539 C-63.75145508 13.58114258 -62.79368164 13.04875977 -61.80688477 12.50024414 C-42.614048 2.33636343 -21.3851969 -0.05383548 0 0 Z " fill="#071D58" transform="translate(371.709228515625,160.886474609375)"/>
<path d="M0 0 C0 51.81 0 103.62 0 157 C-15.10408879 157 -15.10408879 157 -21.5625 154.875 C-22.27937988 154.64981689 -22.99625977 154.42463379 -23.73486328 154.19262695 C-38.01208847 149.53520514 -50.71812402 141.93977335 -60 130 C-61.09634766 128.65615234 -61.09634766 128.65615234 -62.21484375 127.28515625 C-74.15692985 112.16381262 -81.07710203 92.48885854 -79 73 C-76.26596684 51.48925973 -68.09845716 32.07334551 -51 18 C-40.66976988 10.36252931 -29.88055127 4.75633858 -17.375 1.6875 C-16.33605591 1.42972778 -16.33605591 1.42972778 -15.27612305 1.16674805 C-9.88673843 -0.05333371 -5.77470368 0 0 0 Z " fill="#41A6FD" transform="translate(349,255)"/>
<path d="M0 0 C26.07 0 52.14 0 79 0 C77.83002982 16.37958254 77.83002982 16.37958254 75.875 22.5625 C75.65763184 23.27083984 75.44026367 23.97917969 75.21630859 24.70898438 C69.02612711 43.87913526 55.72221851 60.09888659 37.96484375 69.62890625 C25.17928087 75.82749627 14.31281425 77.97765613 0 79 C0 52.93 0 26.86 0 0 Z " fill="#1E61C6" transform="translate(362,255)"/>
<path d="M0 0 C0 51.81 0 103.62 0 157 C-13 157 -13 157 -17 155 C-11.70518291 154.90710847 -7.35789122 155.23458697 -2 156 C-2 105.18 -2 54.36 -2 2 C-5.63 2 -9.26 2 -13 2 C-9 0 -9 0 0 0 Z " fill="#6FB1E9" transform="translate(349,255)"/>
<path d="M0 0 C1.76707715 0.00276538 1.76707715 0.00276538 3.56985283 0.00558662 C4.22493006 0.00387777 4.88000728 0.00216892 5.55493534 0.00040829 C7.75995853 -0.00289789 9.96468046 0.00813533 12.16967583 0.01904488 C13.74630539 0.01960875 15.32293548 0.0192929 16.89956474 0.01815987 C21.18861141 0.01758441 25.47754694 0.02936979 29.76656771 0.04330778 C34.24556641 0.05578313 38.72456746 0.05698311 43.20358086 0.0593586 C51.68920467 0.06558279 60.17477716 0.08200627 68.66037834 0.10205758 C78.31924221 0.12438741 87.97810849 0.13540266 97.63699174 0.14544845 C117.50973153 0.16637171 137.38242506 0.20156588 157.25512505 0.24609566 C157.30912241 1.7040245 157.34791681 3.16252278 157.38012505 4.62109566 C157.40332817 5.43320503 157.4265313 6.24531441 157.45043755 7.08203316 C157.25512505 9.24609566 157.25512505 9.24609566 155.25512505 11.24609566 C154.92512505 8.60609566 154.59512505 5.96609566 154.25512505 3.24609566 C101.78512505 2.91609566 49.31512505 2.58609566 -4.74487495 2.24609566 C-2.74487495 0.24609566 -2.74487495 0.24609566 0 0 Z " fill="#242E56" transform="translate(358.74487495422363,160.75390434265137)"/>
<path d="M0 0 C2.17138971 2.17138971 3.05211673 4.24567047 4.203125 7.05859375 C4.99026561 8.97628434 5.83674089 10.8598701 6.6875 12.75 C8 16 8 16 8 19 C8.66 19 9.32 19 10 19 C10.61875 20.0725 11.2375 21.145 11.875 22.25 C12.24367188 22.88679688 12.61234375 23.52359375 12.9921875 24.1796875 C14 26 14 26 15 28.375 C15.33 28.91125 15.66 29.4475 16 30 C16.9590625 30.2165625 16.9590625 30.2165625 17.9375 30.4375 C20 31 20 31 21.8125 33.4375 C22.204375 34.283125 22.59625 35.12875 23 36 C22.67 36.66 22.34 37.32 22 38 C11.37662492 28.67921859 3.97634255 16.52755731 0 3 C0 2.01 0 1.02 0 0 Z " fill="#53A3E2" transform="translate(273,353)"/>
<path d="M0 0 C0 3 0 3 -1.875 4.9375 C-2.57625 5.618125 -3.2775 6.29875 -4 7 C-5.23512079 9.13309192 -5.23512079 9.13309192 -6 11 C-6.66 11 -7.32 11 -8 11 C-8.08378906 11.54140625 -8.16757812 12.0828125 -8.25390625 12.640625 C-9.25850719 15.81747823 -10.97422933 18.06603503 -12.9375 20.75 C-13.64777344 21.73484375 -14.35804688 22.7196875 -15.08984375 23.734375 C-15.72019531 24.48203125 -16.35054688 25.2296875 -17 26 C-17.66 26 -18.32 26 -19 26 C-15.44878611 15.9257669 -7.83847591 7.06957909 0 0 Z " fill="#55A7E7" transform="translate(297,274)"/>
<path d="M0 0 C0.33 0 0.66 0 1 0 C1 12.21 1 24.42 1 37 C0.67 37 0.34 37 0 37 C-2.5472198 24.17292886 -2.32199867 12.85392123 0 0 Z " fill="#56A6E9" transform="translate(272,315)"/>
<path d="M0 0 C0.66 0 1.32 0 2 0 C2.50610724 6.07328688 1.04157942 9.77228537 -2 15 C-2.66 14.34 -3.32 13.68 -4 13 C-3.828125 10.9765625 -3.828125 10.9765625 -3.25 8.625 C-3.06953125 7.85414063 -2.8890625 7.08328125 -2.703125 6.2890625 C-2.01028052 4.03346881 -1.11734479 2.07371618 0 0 Z " fill="#172453" transform="translate(277,208)"/>
<path d="M0 0 C-3.40858586 3.40858586 -8.32201465 3.93008394 -13 4.125 C-13.66 4.08375 -14.32 4.0425 -15 4 C-10.44224642 -0.86160382 -6.22129884 -0.43488691 0 0 Z " fill="#2861B2" transform="translate(386,329)"/>
<path d="M0 0 C1 3 1 3 -0.43359375 6.35546875 C-1.09148807 7.6380304 -1.75989743 8.91524057 -2.4375 10.1875 C-2.77587891 10.84169922 -3.11425781 11.49589844 -3.46289062 12.16992188 C-4.29969098 13.78459299 -5.14869746 15.39292763 -6 17 C-6.33 17 -6.66 17 -7 17 C-7 15.02 -7 13.04 -7 11 C-6.34 11 -5.68 11 -5 11 C-4.72285156 10.37351562 -4.44570313 9.74703125 -4.16015625 9.1015625 C-3.61681641 7.87566406 -3.61681641 7.87566406 -3.0625 6.625 C-2.70285156 5.81289063 -2.34320313 5.00078125 -1.97265625 4.1640625 C-1.3430097 2.76316215 -0.68687358 1.37374716 0 0 Z " fill="#295FAB" transform="translate(435,280)"/>
<path d="M0 0 C1.05148279 3.69612131 0.94199684 6.23201262 0 10 C-1.4375 12.375 -1.4375 12.375 -3 14 C-3.66 14 -4.32 14 -5 14 C-3.46527032 9.27775484 -1.76054874 4.64144669 0 0 Z " fill="#D5E8F7" transform="translate(436,280)"/>
<path d="M0 0 C0.66 0.33 1.32 0.66 2 1 C2 1.99 2 2.98 2 4 C-1.96 5.32 -5.92 6.64 -10 8 C-10 7.34 -10 6.68 -10 6 C-9.44570313 5.73445312 -8.89140625 5.46890625 -8.3203125 5.1953125 C-7.59585937 4.84210938 -6.87140625 4.48890625 -6.125 4.125 C-5.40570313 3.77695313 -4.68640625 3.42890625 -3.9453125 3.0703125 C-1.84864981 2.03442457 -1.84864981 2.03442457 0 0 Z " fill="#132352" transform="translate(468,229)"/>
<path d="M0 0 C-1.77444972 2.24606427 -2.58352485 2.95081002 -5.48046875 3.29296875 C-6.82044922 3.24076172 -6.82044922 3.24076172 -8.1875 3.1875 C-9.53908203 3.14689453 -9.53908203 3.14689453 -10.91796875 3.10546875 C-11.60503906 3.07066406 -12.29210937 3.03585937 -13 3 C-3.70474138 -1.85237069 -3.70474138 -1.85237069 0 0 Z " fill="#CAE0F6" transform="translate(389,330)"/>
<path d="M0 0 C6.625 -0.25 6.625 -0.25 10 2 C6.37 2.33 2.74 2.66 -1 3 C-0.67 2.01 -0.34 1.02 0 0 Z " fill="#1F2E5B" transform="translate(446,236)"/>
<path d="M0 0 C0.99 0.33 1.98 0.66 3 1 C0.75 3.5625 0.75 3.5625 -2 6 C-4.3125 5.8125 -4.3125 5.8125 -6 5 C-1.60546875 0.99609375 -1.60546875 0.99609375 0 0 Z " fill="#1D2755" transform="translate(299,180)"/>
<path d="M0 0 C0.99 0 1.98 0 3 0 C1.64978174 4.41889613 -0.26115668 6.34345343 -4 9 C-3.6875 7.0625 -3.6875 7.0625 -3 5 C-2.01 4.67 -1.02 4.34 0 4 C0 2.68 0 1.36 0 0 Z " fill="#3468B0" transform="translate(423,300)"/>
<path d="M0 0 C3.5875213 1.33250791 6.8364623 2.830717 10 5 C10 5.66 10 6.32 10 7 C5.56541027 5.6062718 3.12621626 3.39417765 0 0 Z " fill="#5CA6E3" transform="translate(299,394)"/>
<path d="M0 0 C0.66 0 1.32 0 2 0 C2.33 0.99 2.66 1.98 3 3 C0.525 4.485 0.525 4.485 -2 6 C-2 2 -2 2 0 0 Z " fill="#152154" transform="translate(294,252)"/>
<path d="M0 0 C-4.43076923 3.07692308 -4.43076923 3.07692308 -7.3125 2.6875 C-8.1478125 2.3471875 -8.1478125 2.3471875 -9 2 C-3.375 -1.125 -3.375 -1.125 0 0 Z " fill="#0C1B47" transform="translate(477,229)"/>
</svg>
