<?xml version="1.0" encoding="UTF-8"?>
<svg version="1.1" xmlns="http://www.w3.org/2000/svg" width="301" height="291">
<path d="M0 0 C99.33 0 198.66 0 301 0 C301 96.03 301 192.06 301 291 C201.67 291 102.34 291 0 291 C0 194.97 0 98.94 0 0 Z " fill="#FDFEFE" transform="translate(0,0)"/>
<path d="M0 0 C0.66257848 -0.00085442 1.32515696 -0.00170885 2.00781357 -0.00258917 C4.21415027 -0.0042281 6.42040988 0.00125125 8.6267395 0.00672913 C10.21381122 0.00701137 11.80088307 0.00685254 13.38795471 0.00628662 C17.68706056 0.00600009 21.98613843 0.01187361 26.28523779 0.01886058 C30.7815674 0.02511803 35.27789767 0.02569981 39.77423096 0.02688599 C48.28449426 0.02999225 56.79474469 0.03819614 65.30500233 0.04823548 C74.99540274 0.0594185 84.68580377 0.06491258 94.37620902 0.06993091 C114.30624329 0.08037934 134.23626597 0.09796514 154.16629028 0.12025452 C154.17934951 1.54763873 154.18862113 2.97505789 154.19631958 4.40248108 C154.20189377 5.19736938 154.20746796 5.99225769 154.21321106 6.81123352 C153.8186325 26.22886167 143.34323943 43.67347023 130.16629028 57.12025452 C129.51402466 57.80861389 128.86175903 58.49697327 128.18972778 59.20619202 C110.84393738 76.15014943 87.98552312 79.03744771 64.90066528 79.65931702 C64.16975426 79.68009937 63.43884323 79.70088173 62.68578339 79.72229385 C50.91450951 80.0547975 39.14472015 80.22929364 27.36941528 80.33119202 C25.79499265 80.34565097 24.22057045 80.36015705 22.64614868 80.37471008 C16.27871486 80.43220132 9.91134715 80.48867835 3.54373169 80.5216217 C-0.44437132 80.54274726 -4.43214128 80.57810339 -8.42005157 80.6223793 C-9.90446302 80.63629764 -11.38893227 80.64520532 -12.87340546 80.64843369 C-22.58274347 80.67190361 -31.42036874 81.69769444 -40.83370972 84.12025452 C-41.96024712 84.40800499 -41.96024712 84.40800499 -43.10954285 84.7015686 C-59.6013442 89.21418913 -74.52215694 99.32124985 -85.83370972 112.12025452 C-86.32870972 113.11025452 -86.32870972 113.11025452 -86.83370972 114.12025452 C-87.49370972 114.12025452 -88.15370972 114.12025452 -88.83370972 114.12025452 C-95.18681811 86.96827937 -93.43495526 60.20624282 -78.84152222 36.07337952 C-65.5166235 16.47489035 -45.09320464 7.22856699 -22.45040894 2.83021545 C-19.24995631 2.22925388 -16.0436564 1.6680389 -12.83370972 1.12025452 C-11.91053389 0.94508584 -10.98735806 0.76991716 -10.0362072 0.58944035 C-6.64220758 0.09219826 -3.42983954 -0.00267538 0 0 Z " fill="#081D58" transform="translate(124.83370971679688,24.879745483398438)"/>
<path d="M0 0 C0 51.81 0 103.62 0 157 C-7.55546938 157 -13.23145816 156.93075407 -20.25 155 C-21.06138428 154.77997314 -21.87276855 154.55994629 -22.70874023 154.33325195 C-43.32605591 148.37300649 -58.32587769 135.02645915 -69.4375 116.8671875 C-78.63764707 99.98491762 -82.46694202 78.59675144 -76.97265625 59.890625 C-76.65167969 58.93671875 -76.33070312 57.9828125 -76 57 C-75.64808594 55.94296875 -75.29617187 54.8859375 -74.93359375 53.796875 C-67.50058274 33.09238228 -53.77176977 16.89336924 -33.875 7.1875 C-23.08683423 2.22221185 -11.81607772 0 0 0 Z " fill="#40A6FD" transform="translate(112,119)"/>
<path d="M0 0 C26.07 0 52.14 0 79 0 C77.82972074 16.38390964 77.82972074 16.38390964 75.875 22.5625 C75.65618164 23.27229004 75.43736328 23.98208008 75.21191406 24.71337891 C68.73722868 44.69869418 54.4732602 61.2329635 35.91015625 70.93774414 C24.44882486 76.50572149 12.67331255 79 0 79 C0 52.93 0 26.86 0 0 Z " fill="#1B5FC7" transform="translate(125,119)"/>
<path d="M0 0 C2.64 0 5.28 0 8 0 C8 51.81 8 103.62 8 157 C0.44453062 157 -5.23145816 156.93075407 -12.25 155 C-13.06138428 154.77997314 -13.87276855 154.55994629 -14.70874023 154.33325195 C-35.32605591 148.37300649 -50.32587769 135.02645915 -61.4375 116.8671875 C-70.63764707 99.98491762 -74.46694202 78.59675144 -68.97265625 59.890625 C-68.65167969 58.93671875 -68.33070312 57.9828125 -68 57 C-67.64808594 55.94296875 -67.29617187 54.8859375 -66.93359375 53.796875 C-59.72667013 33.72214386 -46.50231231 17.42573494 -27.15722656 7.98754883 C-13.56691752 1.60508961 -13.56691752 1.60508961 -8.5625 2.375 C-8.046875 2.58125 -7.53125 2.7875 -7 3 C-8.2375 3.391875 -9.475 3.78375 -10.75 4.1875 C-21.15051496 7.25978261 -21.15051496 7.25978261 -30 13 C-30.99 13 -31.98 13 -33 13 C-33 13.66 -33 14.32 -33 15 C-34.98 15.66 -36.96 16.32 -39 17 C-39 17.99 -39 18.98 -39 20 C-39.66 20 -40.32 20 -41 20 C-41.226875 20.556875 -41.45375 21.11375 -41.6875 21.6875 C-43.39848215 24.70208759 -45.372373 26.74774829 -48 29 C-49.32 29 -50.64 29 -52 29 C-52.25007813 29.52464844 -52.50015625 30.04929688 -52.7578125 30.58984375 C-54.02135147 33.04142722 -55.40889491 35.40061635 -56.81787109 37.77075195 C-64.40116077 50.62381499 -68.37413932 63.0205217 -68.25 78 C-68.25773437 78.93328125 -68.26546875 79.8665625 -68.2734375 80.828125 C-68.25671464 86.81490743 -67.55727354 92.22438157 -66 98 C-65.64808594 99.37865234 -65.64808594 99.37865234 -65.2890625 100.78515625 C-63.70896742 106.20395291 -61.80204793 111.09866858 -59 116 C-58.50628906 116.86625 -58.01257812 117.7325 -57.50390625 118.625 C-51.96048652 127.84269563 -45.58246682 135.01711725 -36 140 C-35 141 -34 142 -33 143 C-30.40084462 144.19027984 -30.40084462 144.19027984 -28 145 C-28 145.66 -28 146.32 -28 147 C-21.70273565 149.12118378 -15.35626444 151.06444579 -9 153 C-7.741875 153.391875 -6.48375 153.78375 -5.1875 154.1875 C-1.52676605 155.12062826 2.25138202 155.53142275 6 156 C6 105.18 6 54.36 6 2 C4.02 2 2.04 2 0 2 C0 1.34 0 0.68 0 0 Z " fill="#68AAE0" transform="translate(104,119)"/>
<path d="M0 0 C26.07 0 52.14 0 79 0 C77.82972074 16.38390964 77.82972074 16.38390964 75.875 22.5625 C75.65618164 23.27229004 75.43736328 23.98208008 75.21191406 24.71337891 C68.73722868 44.69869418 54.4732602 61.2329635 35.91015625 70.93774414 C24.44882486 76.50572149 12.67331255 79 0 79 C0 52.93 0 26.86 0 0 Z M2 2 C2 26.75 2 51.5 2 77 C13.39329505 77 20.34784909 75.72919489 30.3359375 70.33984375 C32.61070008 69.1957916 34.51668747 68.47665478 37 68 C37 67.34 37 66.68 37 66 C38.0725 65.7525 39.145 65.505 40.25 65.25 C44.09330677 63.96889774 45.31885303 62.86605366 48 60 C50.25 59.25 50.25 59.25 52 59 C52 58.01 52 57.02 52 56 C52.66 56 53.32 56 54 56 C54.33 55.01 54.66 54.02 55 53 C55.845625 52.360625 56.69125 51.72125 57.5625 51.0625 C58.7690625 50.0415625 58.7690625 50.0415625 60 49 C60 47.68 60 46.36 60 45 C61.98 44.505 61.98 44.505 64 44 C64 42.68 64 41.36 64 40 C64.66 40 65.32 40 66 40 C70.5057189 34.9440778 72.02829785 28.91505827 73.421875 22.44140625 C74 20 74 20 75 19 C75.33 13.39 75.66 7.78 76 2 C51.58 2 27.16 2 2 2 Z " fill="#517AB5" transform="translate(125,119)"/>
<path d="M0 0 C3.96 0.33 7.92 0.66 12 1 C12 51.82 12 102.64 12 155 C9.36 155 6.72 155 4 155 C3.34 154.34 2.68 153.68 2 153 C4.64 153 7.28 153 10 153 C10.33 103.17 10.66 53.34 11 2 C-3.46213072 4.33628799 -3.46213072 4.33628799 -11 7 C-13.375 6.625 -13.375 6.625 -15 6 C-14.08476563 5.73445313 -13.16953125 5.46890625 -12.2265625 5.1953125 C-11.03804688 4.84210938 -9.84953125 4.48890625 -8.625 4.125 C-7.44164063 3.77695313 -6.25828125 3.42890625 -5.0390625 3.0703125 C-1.93508442 2.22312581 -1.93508442 2.22312581 0 0 Z " fill="#49A3F1" transform="translate(98,120)"/>
<path d="M0 0 C0.66 0 1.32 0 2 0 C0.4269483 23.43304605 -7.48604503 41.15755768 -24 58 C-24.495 56.515 -24.495 56.515 -25 55 C-24.34 55 -23.68 55 -23 55 C-22.9175 54.401875 -22.835 53.80375 -22.75 53.1875 C-21.79055618 50.38912218 -20.3258784 49.7444088 -18 48 C-17.20376178 45.90584196 -17.20376178 45.90584196 -17 44 C-16.34 44 -15.68 44 -15 44 C-14.34 42.35 -13.68 40.7 -13 39 C-12.34 39 -11.68 39 -11 39 C-7.88641556 33.01233762 -5.70824739 27.43742072 -4.4296875 20.8203125 C-4 19 -4 19 -3 18 C-2.62525688 15.16600515 -2.29389149 12.34248179 -2 9.5 C-1.13513514 1.13513514 -1.13513514 1.13513514 0 0 Z " fill="#2C5FA8" transform="translate(202,120)"/>
<path d="M0 0 C2.11328125 0.390625 2.11328125 0.390625 4 1 C-9.17961893 11.7588726 -25.57260442 20.22297513 -43 19 C-43 18.67 -43 18.34 -43 18 C-41.98421875 17.85304687 -40.9684375 17.70609375 -39.921875 17.5546875 C-31.62931135 16.24166456 -24.8355516 14.44470909 -17.453125 10.20703125 C-15 9 -15 9 -11 9 C-11 8.34 -11 7.68 -11 7 C-9.9275 6.5875 -8.855 6.175 -7.75 5.75 C-5.07763346 4.63158503 -3.89410904 3.89108358 -1.8125 1.75 C-1.214375 1.1725 -0.61625 0.595 0 0 Z " fill="#2C60A9" transform="translate(173,178)"/>
<path d="M0 0 C1.65 0 3.3 0 5 0 C2.11970643 2.28552297 -0.7830575 3.97320422 -4.0625 5.625 C-10.37246683 9.0077496 -15.60000456 13.33714679 -21 18 C-22.2270723 19.02334987 -23.45578402 20.04474407 -24.6875 21.0625 C-25.450625 21.701875 -26.21375 22.34125 -27 23 C-26.67 21.35 -26.34 19.7 -26 18 C-25.34 18 -24.68 18 -24 18 C-24 17.34 -24 16.68 -24 16 C-20.53846154 13 -20.53846154 13 -18 13 C-17.67 12.01 -17.34 11.02 -17 10 C-15.35 9.67 -13.7 9.34 -12 9 C-12 8.34 -12 7.68 -12 7 C-9.09451118 4.95830515 -7.59857954 4 -4 4 C-4 3.34 -4 2.68 -4 2 C-2.68 2 -1.36 2 0 2 C0 1.34 0 0.68 0 0 Z " fill="#D7F6FD" transform="translate(78,124)"/>
<path d="M0 0 C0.99 0 1.98 0 3 0 C3.33 0.99 3.66 1.98 4 3 C3.34 3.66 2.68 4.32 2 5 C0.65288558 9.63513712 0.70143502 14.51909247 0.5 19.3125 C0.24642645 25.26208675 -0.18510938 31.09883374 -1 37 C-1.33 37 -1.66 37 -2 37 C-2.05888242 32.89589532 -2.09388921 28.79190173 -2.125 24.6875 C-2.14175781 23.53958984 -2.15851562 22.39167969 -2.17578125 21.20898438 C-2.21714715 13.90790257 -1.6033331 7.12642698 0 0 Z " fill="#1D2A53" transform="translate(35,85)"/>
<path d="M0 0 C1.57128972 2.42476003 2.0896519 3.5297074 1.5390625 6.41796875 C1.23742188 7.33191406 0.93578125 8.24585938 0.625 9.1875 C-2.31050117 19.78647768 -1.57098031 31.19951038 0 42 C-2.96226394 38.72097913 -3.36829631 36.57625674 -3.328125 32.203125 C-3.32296875 31.0790625 -3.3178125 29.955 -3.3125 28.796875 C-3.291875 27.62640625 -3.27125 26.4559375 -3.25 25.25 C-3.24484375 24.095 -3.2396875 22.94 -3.234375 21.75 C-3.17958799 15.75082253 -2.90579956 9.93152612 -2 4 C-1.34 4 -0.68 4 0 4 C0 2.68 0 1.36 0 0 Z " fill="#D6F5FD" transform="translate(35,172)"/>
<path d="M0 0 C0.33 0.99 0.66 1.98 1 3 C-0.2065625 3.37125 -0.2065625 3.37125 -1.4375 3.75 C-4.171081 4.72238859 -4.171081 4.72238859 -4.8125 7.125 C-4.874375 7.74375 -4.93625 8.3625 -5 9 C-6.98 9 -8.96 9 -11 9 C-11 9.66 -11 10.32 -11 11 C-11.99 11.33 -12.98 11.66 -14 12 C-14.66 11.34 -15.32 10.68 -16 10 C-3.42465753 0 -3.42465753 0 0 0 Z " fill="#0B1A4C" transform="translate(75,37)"/>
<path d="M0 0 C-0.37511719 0.43570313 -0.75023437 0.87140625 -1.13671875 1.3203125 C-1.64847656 1.91585937 -2.16023438 2.51140625 -2.6875 3.125 C-3.23277344 3.75792969 -3.77804688 4.39085937 -4.33984375 5.04296875 C-5.8442533 6.81640213 -7.29792354 8.62132079 -8.75 10.4375 C-9.4925 11.283125 -10.235 12.12875 -11 13 C-11.66 13 -12.32 13 -13 13 C-13 11.02 -13 9.04 -13 7 C-11.68 7 -10.36 7 -9 7 C-8.566875 5.5459375 -8.566875 5.5459375 -8.125 4.0625 C-6.41901085 -0.58158158 -4.5636993 -0.12009735 0 0 Z " fill="#142049" transform="translate(49,126)"/>
<path d="M0 0 C0.66 0.66 1.32 1.32 2 2 C1.89453125 4.4453125 1.89453125 4.4453125 1 7 C-0.92578125 8.6171875 -0.92578125 8.6171875 -3.3125 9.875 C-4.09238281 10.30554688 -4.87226563 10.73609375 -5.67578125 11.1796875 C-8.28677758 12.10121562 -9.44350882 11.94771526 -12 11 C-10.35 10.34 -8.7 9.68 -7 9 C-7 8.34 -7 7.68 -7 7 C-5.34614767 5.65080468 -3.678298 4.31866272 -2 3 C-1.34 2.01 -0.68 1.02 0 0 Z " fill="#0E1C4C" transform="translate(243,84)"/>
<path d="M0 0 C0.66 0.66 1.32 1.32 2 2 C-1.45746016 2.83698495 -4.91610489 3.66896676 -8.375 4.5 C-9.85226563 4.85771484 -9.85226563 4.85771484 -11.359375 5.22265625 C-12.30039063 5.44824219 -13.24140625 5.67382812 -14.2109375 5.90625 C-15.51490479 6.22045898 -15.51490479 6.22045898 -16.84521484 6.54101562 C-19 7 -19 7 -21 7 C-21 6.01 -21 5.02 -21 4 C-15.87438769 2.8040238 -10.73760619 1.71135869 -5.5625 0.75 C-4.55316406 0.55921875 -3.54382813 0.3684375 -2.50390625 0.171875 C-1.67761719 0.11515625 -0.85132812 0.0584375 0 0 Z " fill="#DEF8FE" transform="translate(105,117)"/>
<path d="M0 0 C1.86321465 2.79482197 3.68850035 5.60895077 5.5 8.4375 C6.1084375 9.38496094 6.716875 10.33242187 7.34375 11.30859375 C8.69459034 13.5037093 9.89966423 15.67278986 11 18 C9.68 17.67 8.36 17.34 7 17 C7 16.34 7 15.68 7 15 C6.34 15 5.68 15 5 15 C3.23537317 11.91190305 3 10.76687864 3 7 C2.01 6.67 1.02 6.34 0 6 C0 4.02 0 2.04 0 0 Z " fill="#D5F3FC" transform="translate(40,230)"/>
<path d="M0 0 C0.33 0.66 0.66 1.32 1 2 C0.34 2 -0.32 2 -1 2 C-1.226875 2.556875 -1.45375 3.11375 -1.6875 3.6875 C-3.38617978 6.68041199 -5.42072687 8.73527237 -8 11 C-8.99 11 -9.98 11 -11 11 C-10.4204182 7.78087698 -9.51238945 6.10207467 -7.1875 3.8125 C-6.68605469 3.30332031 -6.18460938 2.79414063 -5.66796875 2.26953125 C-3.79419623 0.84335779 -2.29885388 0.41389343 0 0 Z " fill="#50A3E5" transform="translate(64,137)"/>
<path d="M0 0 C1.21881834 3.98261767 0.46199417 6.10134888 -1 10 C-1.165 10.70125 -1.33 11.4025 -1.5 12.125 C-2.06879693 14.2579885 -2.95997718 16.05862407 -4 18 C-4.66 18 -5.32 18 -6 18 C-5.61330541 11.03949747 -3.36561591 6.0605925 0 0 Z " fill="#16244D" transform="translate(43,66)"/>
<path d="M0 0 C-1 3 -1 3 -3 4.625 C-6.86774658 6.39771718 -10.73040392 7.17615229 -15 7 C-15.66 6.34 -16.32 5.68 -17 5 C-16.08476562 4.72285156 -15.16953125 4.44570312 -14.2265625 4.16015625 C-13.03804687 3.79792969 -11.84953125 3.43570313 -10.625 3.0625 C-9.44164062 2.70285156 -8.25828125 2.34320313 -7.0390625 1.97265625 C-0.87550201 0 -0.87550201 0 0 0 Z " fill="#CFE6F5" transform="translate(160,190)"/>
<path d="M0 0 C2.33944736 0.28730055 4.6739143 0.61936779 7 1 C3.72828292 2.75439901 0.39577958 3.95717385 -3.125 5.125 C-4.17945312 5.47820312 -5.23390625 5.83140625 -6.3203125 6.1953125 C-9 7 -9 7 -11 7 C-11 6.34 -11 5.68 -11 5 C-10.01 5 -9.02 5 -8 5 C-8 4.01 -8 3.02 -8 2 C-6.2984375 1.7834375 -6.2984375 1.7834375 -4.5625 1.5625 C-1.19222799 1.38828522 -1.19222799 1.38828522 0 0 Z " fill="#19254D" transform="translate(81,106)"/>
<path d="M0 0 C-0.33 0.99 -0.66 1.98 -1 3 C-4.63 3 -8.26 3 -12 3 C-12.33 3.99 -12.66 4.98 -13 6 C-13.33 5.34 -13.66 4.68 -14 4 C-14.99 3.34 -15.98 2.68 -17 2 C-14.91952703 1.4678559 -12.83547707 0.94968214 -10.75 0.4375 C-9.58984375 0.14746094 -8.4296875 -0.14257812 -7.234375 -0.44140625 C-4.27909017 -0.95179964 -2.75565899 -1.02996165 0 0 Z " fill="#212E57" transform="translate(108,28)"/>
<path d="M0 0 C0.33 1.32 0.66 2.64 1 4 C0.01 4.33 -0.98 4.66 -2 5 C-2.28875 5.928125 -2.5775 6.85625 -2.875 7.8125 C-4.19951997 11.56530658 -5.76808166 12.78868745 -9 15 C-9.66 14.67 -10.32 14.34 -11 14 C-10.37351563 13.24074219 -9.74703125 12.48148438 -9.1015625 11.69921875 C-8.28429687 10.70535156 -7.46703125 9.71148437 -6.625 8.6875 C-5.81289062 7.70136719 -5.00078125 6.71523437 -4.1640625 5.69921875 C-1.94395043 3.01091621 -1.94395043 3.01091621 0 0 Z " fill="#D6EBF9" transform="translate(192,160)"/>
<path d="M0 0 C6.75 2.75 6.75 2.75 9 5 C7.02 6.32 5.04 7.64 3 9 C2.67 7.35 2.34 5.7 2 4 C1.01 4.33 0.02 4.66 -1 5 C-0.67 3.35 -0.34 1.7 0 0 Z " fill="#17285A" transform="translate(242,81)"/>
<path d="M0 0 C0 3.52032428 -0.70351351 4.4385343 -3 7 C-3.66 7 -4.32 7 -5 7 C-5 7.66 -5 8.32 -5 9 C-6.98 9.99 -8.96 10.98 -11 12 C-11.66 11.34 -12.32 10.68 -13 10 C-12.154375 9.46375 -11.30875 8.9275 -10.4375 8.375 C-6.69225284 5.89008661 -3.35672128 2.97933841 0 0 Z " fill="#DDF1FC" transform="translate(180,175)"/>
<path d="M0 0 C0.33 0 0.66 0 1 0 C1.10841951 1.91541138 1.18578079 3.83259773 1.25 5.75 C1.29640625 6.81734375 1.3428125 7.8846875 1.390625 8.984375 C0.91735478 12.63802112 -0.19155042 13.72228105 -3 16 C-4.57159226 12.85681547 -3.04018399 10.07066611 -2.0625 6.875 C-1.86720703 6.21628906 -1.67191406 5.55757812 -1.47070312 4.87890625 C-0.98695014 3.25066448 -0.49430925 1.62506818 0 0 Z " fill="#D1E7F6" transform="translate(202,133)"/>
<path d="M0 0 C2.12109375 0.38671875 2.12109375 0.38671875 4 1 C-4.261959 7.51936219 -4.261959 7.51936219 -9 9 C-9 8.01 -9 7.02 -9 6 C-8.2575 5.7525 -7.515 5.505 -6.75 5.25 C-3.88921023 4.15896235 -3.88921023 4.15896235 -1.9375 1.8125 C-1.298125 1.214375 -0.65875 0.61625 0 0 Z " fill="#3464A8" transform="translate(173,178)"/>
<path d="M0 0 C3.53372712 1.96318174 6.24479785 4.04070881 9 7 C8.01 7.33 7.02 7.66 6 8 C5.67 7.34 5.34 6.68 5 6 C3.35636866 5.27840576 1.68949614 4.60648579 0 4 C0 2.68 0 1.36 0 0 Z " fill="#DDF7FD" transform="translate(57,255)"/>
<path d="M0 0 C0.66 0.66 1.32 1.32 2 2 C-0.31 4.31 -2.62 6.62 -5 9 C-5.33 8.01 -5.66 7.02 -6 6 C-5.34 6 -4.68 6 -4 6 C-3.896875 5.38125 -3.79375 4.7625 -3.6875 4.125 C-3 2 -3 2 0 0 Z " fill="#3065A9" transform="translate(183,169)"/>
<path d="M0 0 C0.33 0.66 0.66 1.32 1 2 C0.67 2.66 0.34 3.32 0 4 C-0.66 4 -1.32 4 -2 4 C-2 4.66 -2 5.32 -2 6 C-3.98 6.33 -5.96 6.66 -8 7 C-5.42215154 4.35247996 -3.08351902 2.05567935 0 0 Z " fill="#E6EBF5" transform="translate(60,118)"/>
<path d="M0 0 C0.33 0.99 0.66 1.98 1 3 C1.66 3.33 2.32 3.66 3 4 C2.34 4.66 1.68 5.32 1 6 C-0.32 6 -1.64 6 -3 6 C-3 6.66 -3 7.32 -3 8 C-3.66 7.67 -4.32 7.34 -5 7 C-3.35 4.69 -1.7 2.38 0 0 Z " fill="#1E2B57" transform="translate(52,53)"/>
<path d="M0 0 C0.6875 1.625 0.6875 1.625 1 4 C-0.4375 7.25 -0.4375 7.25 -2 10 C-2.66 10 -3.32 10 -4 10 C-2.8905928 6.51329166 -1.73662334 3.22515763 0 0 Z " fill="#D2E8F7" transform="translate(197,150)"/>
<path d="M0 0 C0.33 0.99 0.66 1.98 1 3 C-2.50776784 4.60355101 -5.14354879 5.22036864 -9 5 C-2.40909091 0 -2.40909091 0 0 0 Z " fill="#192650" transform="translate(75,37)"/>
<path d="M0 0 C-0.33 0.66 -0.66 1.32 -1 2 C-4.3 2 -7.6 2 -11 2 C-4.75 -1.125 -4.75 -1.125 0 0 Z " fill="#222E54" transform="translate(93,32)"/>
<path d="M0 0 C0.66 0.33 1.32 0.66 2 1 C0.7508258 4.45925163 -0.67527795 7.14693203 -3 10 C-2.25 3.375 -2.25 3.375 0 0 Z " fill="#D7F5FE" transform="translate(45,151)"/>
<path d="M0 0 C2.97 0.33 5.94 0.66 9 1 C5.00889681 2.9955516 3.30013434 3.19546065 -1 3 C-0.67 2.01 -0.34 1.02 0 0 Z " fill="#081844" transform="translate(86,104)"/>
<path d="M0 0 C-1.24546405 3.73639216 -2.63404953 4.18756513 -6 6 C-6 4.68 -6 3.36 -6 2 C-2.25 0 -2.25 0 0 0 Z " fill="#E1F3FC" transform="translate(160,190)"/>
<path d="M0 0 C0.99 0.66 1.98 1.32 3 2 C1.1875 4 1.1875 4 -1 6 C-1.99 6 -2.98 6 -4 6 C-3 4 -3 4 0 3 C0 2.01 0 1.02 0 0 Z " fill="#0B1946" transform="translate(61,113)"/>
</svg>
